<svg width="512" height="512" viewBox="0 0 512 512" fill="none" xmlns="http://www.w3.org/2000/svg">
<path d="M484.5 46H317.645L314.531 32.3711C311.652 19.7891 300.629 11 287.723 11H27.5C12.3359 11 0 23.3359 0 38.5V388.5C0 403.664 12.3359 416 27.5 416H236.07C238.273 428.789 246.91 439.582 259.336 444.445L271.41 449.172C273.699 456.047 278.633 461.719 285 464.984V477.5C285 490.457 295.543 501 308.5 501H386.5C399.457 501 410 490.457 410 477.5V464.98C418.895 460.422 425 451.164 425 440.5V386H469.5C476.395 386 482 380.395 482 373.5V96H497V388.5C497 395.395 491.395 401 484.5 401H452.5C448.355 401 445 404.359 445 408.5C445 412.641 448.355 416 452.5 416H484.5C499.664 416 512 403.664 512 388.5V73.5C512 58.3359 499.664 46 484.5 46ZM299.906 35.7148L302.258 46H237.645L234.531 32.3711C234.016 30.1133 233.227 27.9844 232.223 26H287.723C293.59 26 298.602 29.9961 299.906 35.7148ZM207.723 26C213.59 26 218.602 29.9961 219.91 35.7148L222.258 46H149.48L146.363 32.3711C145.848 30.1133 145.059 27.9844 144.055 26H207.723ZM27.5 26H119.555C125.422 26 130.434 29.9961 131.742 35.7148L136.188 55.1719C136.969 58.582 140.004 61 143.5 61H484.5C491.395 61 497 66.6094 497 73.5V81H15V38.5C15 31.6055 20.6055 26 27.5 26ZM250.5 409.523V367.836C250.5 362.484 254.852 358.109 260.203 358.086C262.824 358.066 265.277 359.078 267.129 360.922C268.98 362.766 269.996 365.219 269.996 367.828L270 393V432.512L264.801 430.477C256.113 427.078 250.5 418.852 250.5 409.523V409.523ZM426 251V296H383.059V251H426ZM368.059 296H320V289.457C320 282.637 317.188 275.965 312.289 271.156C307.465 266.418 301.16 263.891 294.523 264.004C281.004 264.258 270 275.473 270 289V296H242V251H368.059V296ZM386.5 486H308.5C303.812 486 300 482.188 300 477.5V468H395V477.5C395 482.188 391.188 486 386.5 486ZM410 440.5C410 447.395 404.395 453 397.5 453H297.5C290.605 453 285 447.395 285 440.5V289C285 283.59 289.398 279.102 294.809 279H294.98C297.488 279 299.898 280.012 301.781 281.859C303.828 283.867 305 286.637 305 289.457V382C305 386.141 308.359 389.5 312.5 389.5C316.645 389.5 320 386.141 320 382V364C320 358.484 324.488 354 330 354C335.516 354 340 358.484 340 364V382C340 386.141 343.359 389.5 347.5 389.5C351.645 389.5 355 386.141 355 382V364C355 358.484 359.488 354 365 354C370.516 354 375 358.484 375 364V382C375 386.141 378.359 389.5 382.5 389.5C386.645 389.5 390 386.141 390 382V364C390 358.59 394.398 354.102 399.809 354C402.371 353.949 404.855 354.969 406.785 356.859C408.828 358.867 410.004 361.637 410.004 364.457V440.5H410ZM467 371H425V364.457C425 357.637 422.188 350.965 417.289 346.156C412.465 341.418 406.195 338.887 399.523 339.004C392.934 339.129 386.937 341.855 382.527 346.188C378.012 341.746 371.82 339 365 339C358.191 339 352.012 341.734 347.5 346.164C342.988 341.734 336.809 339 330 339C326.445 339 323.062 339.746 320 341.086V311H428.5C435.395 311 441 305.395 441 298.5V248.5C441 241.605 435.395 236 428.5 236H239.5C232.605 236 227 241.605 227 248.5V298.5C227 305.395 232.605 311 239.5 311H270V345.074C266.961 343.773 263.66 343.086 260.254 343.086C260.215 343.086 260.172 343.086 260.133 343.086C246.551 343.148 235.5 354.254 235.5 367.836V371H45V123.5C45 119.359 41.6445 116 37.5 116C33.3555 116 30 119.359 30 123.5V373.5C30 380.395 35.6055 386 42.5 386H235.5V401H27.5C20.6055 401 15 395.395 15 388.5V96H467V371Z" fill="black"/>
<path d="M239.5 221H428.5C435.395 221 441 215.395 441 208.5V158.5C441 151.605 435.395 146 428.5 146H239.5C232.605 146 227 151.605 227 158.5V208.5C227 215.395 232.605 221 239.5 221ZM426 206H383.059V161H426V206ZM242 161H368.059V206H242V161Z" fill="black"/>
<path d="M78 161H190C194.145 161 197.5 157.641 197.5 153.5C197.5 149.359 194.145 146 190 146H78C73.8555 146 70.5 149.359 70.5 153.5C70.5 157.641 73.8555 161 78 161Z" fill="black"/>
<path d="M78 191H190C194.145 191 197.5 187.641 197.5 183.5C197.5 179.359 194.145 176 190 176H78C73.8555 176 70.5 179.359 70.5 183.5C70.5 187.641 73.8555 191 78 191Z" fill="black"/>
<path d="M78 221H156C160.145 221 163.5 217.641 163.5 213.5C163.5 209.359 160.145 206 156 206H78C73.8555 206 70.5 209.359 70.5 213.5C70.5 217.641 73.8555 221 78 221Z" fill="black"/>
<path d="M78 251H190C194.145 251 197.5 247.641 197.5 243.5C197.5 239.359 194.145 236 190 236H78C73.8555 236 70.5 239.359 70.5 243.5C70.5 247.641 73.8555 251 78 251Z" fill="black"/>
<path d="M78 281H156C160.145 281 163.5 277.641 163.5 273.5C163.5 269.359 160.145 266 156 266H78C73.8555 266 70.5 269.359 70.5 273.5C70.5 277.641 73.8555 281 78 281Z" fill="black"/>
<path d="M78 310H126C130.145 310 133.5 306.641 133.5 302.5C133.5 298.359 130.145 295 126 295H78C73.8555 295 70.5 298.359 70.5 302.5C70.5 306.641 73.8555 310 78 310Z" fill="black"/>
<path d="M49 61H100C104.145 61 107.5 57.6406 107.5 53.5C107.5 49.3594 104.145 46 100 46H49C44.8555 46 41.5 49.3594 41.5 53.5C41.5 57.6406 44.8555 61 49 61Z" fill="black"/>
</svg>
